<svg xmlns="http://www.w3.org/2000/svg" viewBox="0 0 24 24" fill="currentColor">
  <path d="M12 0C5.372 0 0 5.373 0 12c0 5.302 3.438 9.8 8.205 11.387.6.113.82-.26.82-.577v-2.234c-3.338.726-4.033-1.416-4.033-1.416-.546-1.387-1.333-1.756-1.333-1.756-1.089-.745.083-.73.083-.73 1.205.085 1.84 1.238 1.84 1.238 1.07 1.834 2.807 1.304 3.492.997.107-.775.418-1.305.762-1.605-2.665-.304-5.467-1.334-5.467-5.932 0-1.31.469-2.381 1.236-3.222-.124-.304-.536-1.527.117-3.182 0 0 1.008-.323 3.3 1.23a11.48 11.48 0 0 1 3-.404 11.48 11.48 0 0 1 3 .404c2.289-1.553 3.296-1.23 3.296-1.23.655 1.655.243 2.878.12 3.182.77.841 1.235 1.912 1.235 3.222 0 4.61-2.807 5.625-5.48 5.922.43.37.815 1.102.815 2.222v3.293c0 .32.218.694.825.576C20.565 21.795 24 17.297 24 12c0-6.627-5.373-12-12-12z"/>
</svg>